<svg width="704" height="709" viewBox="0 0 704 709" fill="none" xmlns="http://www.w3.org/2000/svg">
<path d="M507.367 46.851C524.419 42.6335 535.237 52.4438 544.405 69.8639C559.899 99.4782 577.501 128.084 594.736 156.873C601.154 167.508 601.887 176.677 595.286 187.863C562.282 243.974 529.828 300.268 497.557 356.746C490.315 369.49 486.739 368.665 477.663 357.021C457.86 331.625 458.777 309.804 477.296 283.215C499.024 252.042 515.618 217.385 535.145 184.654C540.646 175.393 540.096 168.334 534.779 159.44C516.901 129.551 499.482 99.3865 482.43 69.0388C470.97 48.593 472.071 47.126 496.365 46.9427C498.841 46.851 501.499 46.851 507.367 46.851Z" fill="url(#paint0_linear_16_26)"/>
<path d="M695.858 334.008C708.051 346.569 705.026 360.964 694.574 377.559C676.789 405.889 660.928 435.504 644.793 464.843C638.834 475.662 631.224 480.98 618.298 480.98C553.298 480.704 488.206 480.98 423.206 481.53C408.537 481.621 407.437 478.229 412.938 464.385C424.948 434.495 444.292 424.318 476.471 426.885C514.334 430.003 552.656 426.794 590.703 427.252C601.429 427.344 607.296 423.401 612.339 414.233C629.116 383.702 646.443 353.537 664.137 323.465C676.055 303.202 677.889 303.477 690.265 324.382C691.641 326.674 692.924 328.874 695.858 334.008Z" fill="url(#paint1_linear_16_26)"/>
<path d="M542.663 641.337C537.987 658.207 523.961 662.883 504.433 662.149C470.97 661.049 437.416 662.241 403.953 663.066C391.577 663.341 383.234 659.49 376.725 648.305C344.179 592.01 311.175 535.899 277.987 479.971C270.47 467.318 272.945 464.66 287.613 462.551C319.518 457.875 338.037 469.427 351.972 498.583C368.382 532.873 390.385 564.413 409.179 597.511C414.496 606.863 420.914 609.889 431.365 609.614C466.203 608.788 501.041 608.513 535.787 608.697C559.257 608.788 559.899 610.53 548.164 631.71C546.88 634.002 545.597 636.294 542.663 641.337Z" fill="url(#paint2_linear_16_26)"/>
<path d="M200.06 663.799C183.1 668.2 172.099 658.482 162.839 641.245C146.979 611.814 129.01 583.392 111.499 554.877C104.99 544.334 104.165 535.165 110.582 523.888C142.853 467.41 174.666 410.657 206.295 353.812C213.446 340.976 216.929 341.71 226.189 353.354C246.266 378.567 245.625 400.388 227.472 427.16C206.111 458.608 189.976 493.449 170.815 526.363C165.406 535.715 166.048 542.775 171.457 551.577C189.701 581.191 207.395 611.172 224.905 641.336C236.64 661.69 235.54 663.157 211.245 663.616C208.495 663.708 205.836 663.708 200.06 663.799Z" fill="url(#paint3_linear_16_26)"/>
<path d="M8.1774 378.934C-4.1992 366.465 -1.35716 352.071 8.91083 335.384C26.4214 306.87 41.9151 277.072 57.6838 247.458C63.5512 236.547 70.9772 231.138 83.9955 231.046C148.996 230.588 214.087 229.488 279.087 228.204C293.756 227.929 294.856 231.321 289.539 245.166C277.896 275.238 258.735 285.599 226.464 283.398C188.601 280.74 150.279 284.315 112.232 284.407C101.506 284.407 95.6387 288.533 90.7797 297.701C74.3693 328.416 57.4087 358.855 40.0815 389.02C28.4383 409.374 26.6048 409.099 13.9531 388.469C12.4863 386.269 11.1111 383.977 8.1774 378.934Z" fill="url(#paint4_linear_16_26)"/>
<path d="M157.613 69.7723C162.106 52.8105 176.041 48.0429 195.568 48.5013C229.031 49.2348 262.585 47.5845 296.048 46.3926C308.425 45.9342 316.859 49.6932 323.46 60.8788C356.647 116.807 390.293 172.459 424.214 228.021C431.824 240.581 429.44 243.24 414.772 245.624C382.959 250.667 364.257 239.298 349.955 210.325C333.178 176.31 310.808 145.046 291.556 112.131C286.147 102.871 279.729 99.8449 269.278 100.212C234.44 101.495 199.694 102.137 164.856 102.412C141.386 102.595 140.653 100.853 152.204 79.5826C153.488 77.1988 154.771 74.9066 157.613 69.7723Z" fill="url(#paint5_linear_16_26)"/>
<path d="M266.069 146.421C228.297 146.604 190.526 148.071 152.754 148.163C144.32 133.768 128.551 124.05 110.674 124.05C83.7205 124.05 61.8093 145.963 61.8093 172.918C61.8093 199.873 83.7205 221.786 110.674 221.786C127.543 221.786 142.395 213.259 151.196 200.24C176.866 199.232 202.627 197.948 228.114 199.873C254.976 201.89 267.353 188.413 278.262 168.517C287.888 150.638 286.055 146.329 266.069 146.421ZM110.674 198.498C108.29 198.498 105.907 198.131 103.706 197.581C92.98 194.556 85.0957 184.654 85.0957 172.918C85.0957 158.798 96.5555 147.338 110.674 147.338C114.891 147.338 118.925 148.346 122.5 150.18C130.66 154.489 136.252 163.016 136.252 172.918C136.252 187.037 124.792 198.498 110.674 198.498Z" fill="url(#paint6_linear_16_26)"/>
<path d="M154.13 324.473C143.678 307.145 138.911 306.503 129.01 323.831C108.657 359.13 89.6796 395.162 69.0519 430.278C68.6852 430.919 68.3185 431.561 67.9518 432.111C41.7317 432.845 20.554 454.482 20.554 480.888C20.554 507.843 42.4652 529.756 69.4186 529.756C96.3721 529.756 118.283 507.843 118.283 480.888C118.283 473.003 116.358 465.485 113.058 458.883C126.809 433.395 139.736 407.356 156.147 383.61C171.273 361.422 165.773 343.91 154.13 324.473ZM93.6218 488.956C90.2297 499.133 80.6034 506.559 69.327 506.559C55.2085 506.559 43.7487 495.099 43.7487 480.979C43.7487 470.436 50.1662 461.267 59.334 457.416C62.3594 456.133 65.7515 455.399 69.327 455.399C83.4455 455.399 94.9053 466.86 94.9053 480.979C94.9053 483.73 94.4469 486.389 93.6218 488.956Z" fill="url(#paint7_linear_16_26)"/>
<path d="M492.607 178.877C473.629 144.771 453.368 111.397 434.574 77.1988C440.35 69.2222 443.65 59.4119 443.65 48.8681C443.65 21.9127 421.739 0 394.786 0C367.832 0 345.921 21.9127 345.921 48.8681C345.921 72.6145 362.973 92.5101 385.526 96.8193C400.195 121.391 415.597 145.504 427.331 171.359C438.516 195.931 456.302 200.24 479.038 200.148C499.391 200.057 502.324 196.298 492.607 178.877ZM419.722 54.7359C417.063 66.0132 406.887 74.4482 394.786 74.4482C383.876 74.4482 374.433 67.4801 370.858 57.8532C369.849 55.1027 369.207 52.0771 369.207 48.8681C369.207 34.7486 380.667 23.288 394.786 23.288C408.904 23.288 420.364 34.7486 420.364 48.8681C420.456 50.8852 420.181 52.8106 419.722 54.7359Z" fill="url(#paint8_linear_16_26)"/>
<path d="M638.742 187.129C611.789 187.129 589.877 209.042 589.877 235.997C589.877 241.59 590.794 246.908 592.536 251.859C578.234 277.53 564.849 303.752 548.072 327.59C532.487 349.595 537.712 367.198 549.172 386.727C559.44 404.239 564.207 404.881 574.292 387.736C594.553 353.537 613.53 318.605 633.975 284.59C635.533 284.773 637.092 284.773 638.65 284.773C665.604 284.773 687.515 262.861 687.515 235.905C687.515 208.95 665.695 187.129 638.742 187.129ZM645.251 260.66C643.143 261.21 641.034 261.485 638.742 261.485C624.624 261.485 613.164 250.025 613.164 235.905C613.164 230.588 614.814 225.637 617.656 221.511C622.24 214.726 630.033 210.325 638.742 210.325C652.86 210.325 664.32 221.786 664.32 235.905C664.32 247.824 656.253 257.818 645.251 260.66Z" fill="url(#paint9_linear_16_26)"/>
<path d="M598.862 491.798C583.185 491.798 569.158 499.316 560.174 510.869C531.295 511.511 502.416 513.069 473.812 510.502C446.951 508.118 434.391 521.504 423.298 541.217C413.396 558.912 415.138 563.313 435.124 563.404C475.279 563.679 515.434 562.487 555.59 563.038C563.749 578.624 580.068 589.351 598.862 589.351C625.815 589.351 647.726 567.438 647.726 540.483C647.726 513.711 625.815 491.798 598.862 491.798ZM598.862 566.155C592.536 566.155 586.76 563.863 582.268 560.012C576.767 555.336 573.284 548.368 573.284 540.575C573.284 526.455 584.743 514.995 598.862 514.995H598.954C613.072 514.995 624.532 526.455 624.532 540.575C624.44 554.694 612.98 566.155 598.862 566.155Z" fill="url(#paint10_linear_16_26)"/>
<path d="M320.984 612.089C306.132 587.884 290.455 563.954 278.446 538.374C266.986 513.986 249.108 509.86 226.464 510.227C206.203 510.502 203.269 514.353 213.171 531.59C232.515 565.421 253.142 598.52 272.303 632.351C266.802 640.236 263.594 649.863 263.594 660.132C263.594 687.087 285.505 709 312.458 709C339.412 709 361.323 687.087 361.323 660.132C361.323 636.202 343.812 616.215 320.984 612.089ZM312.458 685.804C298.34 685.804 286.88 674.343 286.88 660.224C286.88 658.39 287.063 656.556 287.43 654.814C289.905 643.262 300.173 634.552 312.458 634.552C323.368 634.552 332.719 641.428 336.386 651.055C337.395 653.897 338.037 656.923 338.037 660.132C338.037 674.343 326.577 685.804 312.458 685.804Z" fill="url(#paint11_linear_16_26)"/>
<defs>
<linearGradient id="paint0_linear_16_26" x1="463.108" y1="45.877" x2="599.905" y2="45.877" gradientUnits="userSpaceOnUse">
<stop stop-color="#00FF8F"/>
<stop offset="1" stop-color="#00A1FF"/>
</linearGradient>
<linearGradient id="paint1_linear_16_26" x1="409.887" y1="308.482" x2="703.784" y2="308.482" gradientUnits="userSpaceOnUse">
<stop stop-color="#00FF8F"/>
<stop offset="1" stop-color="#00A1FF"/>
</linearGradient>
<linearGradient id="paint2_linear_16_26" x1="273.856" y1="461.544" x2="555.637" y2="461.544" gradientUnits="userSpaceOnUse">
<stop stop-color="#00FF8F"/>
<stop offset="1" stop-color="#00A1FF"/>
</linearGradient>
<linearGradient id="paint3_linear_16_26" x1="106.171" y1="344.403" x2="241.168" y2="344.403" gradientUnits="userSpaceOnUse">
<stop stop-color="#00FF8F"/>
<stop offset="1" stop-color="#00A1FF"/>
</linearGradient>
<linearGradient id="paint4_linear_16_26" x1="-6.10352e-05" y1="228.189" x2="292.457" y2="228.189" gradientUnits="userSpaceOnUse">
<stop stop-color="#00FF8F"/>
<stop offset="1" stop-color="#00A1FF"/>
</linearGradient>
<linearGradient id="paint5_linear_16_26" x1="144.908" y1="46.3557" x2="428.441" y2="46.3557" gradientUnits="userSpaceOnUse">
<stop stop-color="#00FF8F"/>
<stop offset="1" stop-color="#00A1FF"/>
</linearGradient>
<linearGradient id="paint6_linear_16_26" x1="61.8093" y1="124.05" x2="283.905" y2="124.05" gradientUnits="userSpaceOnUse">
<stop stop-color="#00FF8F"/>
<stop offset="1" stop-color="#00A1FF"/>
</linearGradient>
<linearGradient id="paint7_linear_16_26" x1="20.554" y1="311.151" x2="165.37" y2="311.151" gradientUnits="userSpaceOnUse">
<stop stop-color="#00FF8F"/>
<stop offset="1" stop-color="#00A1FF"/>
</linearGradient>
<linearGradient id="paint8_linear_16_26" x1="345.921" y1="0" x2="497.961" y2="0" gradientUnits="userSpaceOnUse">
<stop stop-color="#00FF8F"/>
<stop offset="1" stop-color="#00A1FF"/>
</linearGradient>
<linearGradient id="paint9_linear_16_26" x1="538.344" y1="187.129" x2="687.515" y2="187.129" gradientUnits="userSpaceOnUse">
<stop stop-color="#00FF8F"/>
<stop offset="1" stop-color="#00A1FF"/>
</linearGradient>
<linearGradient id="paint10_linear_16_26" x1="417.416" y1="491.798" x2="647.727" y2="491.798" gradientUnits="userSpaceOnUse">
<stop stop-color="#00FF8F"/>
<stop offset="1" stop-color="#00A1FF"/>
</linearGradient>
<linearGradient id="paint11_linear_16_26" x1="207.677" y1="510.206" x2="361.323" y2="510.206" gradientUnits="userSpaceOnUse">
<stop stop-color="#00FF8F"/>
<stop offset="1" stop-color="#00A1FF"/>
</linearGradient>
</defs>
</svg>
