<svg width="467.9999999999999" height="127.41492438140382" viewBox="0 0 370 100.73402141264835" class="css-1j8o68f" xmlns="http://www.w3.org/2000/svg">
                <defs id="SvgjsDefs2709">
                    <linearGradient id="SvgjsLinearGradient2714">
                        <stop id="SvgjsStop2715" stop-color="#00ff8f" offset="0"></stop>
                        <stop id="SvgjsStop2716" stop-color="#00a1ff" offset="1"></stop>
                    </linearGradient>
                    <linearGradient id="SvgjsLinearGradient2717">
                        <stop id="SvgjsStop2718" stop-color="#00ff8f" offset="0"></stop>
                        <stop id="SvgjsStop2719" stop-color="#00a1ff" offset="1"></stop>
                    </linearGradient>
                </defs>
                <g id="SvgjsG2710" featurekey="symbolFeature-0"
                    transform="matrix(0.13026512737979934,0,0,0.13026512737979934,-15.134239310968717,-14.759039329668886)"
                    fill="url(#SvgjsLinearGradient2714)">
                    <g xmlns="http://www.w3.org/2000/svg">
                        <g>
                            <path
                                d="M669.6,164.4c18.6-4.6,30.4,6.1,40.4,25.1c16.9,32.3,36.1,63.5,54.9,94.9c7,11.6,7.8,21.6,0.6,33.8    c-36,61.2-71.4,122.6-106.6,184.2c-7.9,13.9-11.8,13-21.7,0.3c-21.6-27.7-20.6-51.5-0.4-80.5c23.7-34,41.8-71.8,63.1-107.5    c6-10.1,5.4-17.8-0.4-27.5c-19.5-32.6-38.5-65.5-57.1-98.6c-12.5-22.3-11.3-23.9,15.2-24.1C660.3,164.4,663.2,164.4,669.6,164.4z">
                            </path>
                        </g>
                        <g>
                            <path
                                d="M875.2,477.6c13.3,13.7,10,29.4-1.4,47.5c-19.4,30.9-36.7,63.2-54.3,95.2c-6.5,11.8-14.8,17.6-28.9,17.6    c-70.9-0.3-141.9,0-212.8,0.6c-16,0.1-17.2-3.6-11.2-18.7c13.1-32.6,34.2-43.7,69.3-40.9c41.3,3.4,83.1-0.1,124.6,0.4    c11.7,0.1,18.1-4.2,23.6-14.2c18.3-33.3,37.2-66.2,56.5-99c13-22.1,15-21.8,28.5,1C870.6,469.6,872,472,875.2,477.6z">
                            </path>
                        </g>
                        <g>
                            <path
                                d="M708.1,812.8c-5.1,18.4-20.4,23.5-41.7,22.7c-36.5-1.2-73.1,0.1-109.6,1c-13.5,0.3-22.6-3.9-29.7-16.1    c-35.5-61.4-71.5-122.6-107.7-183.6c-8.2-13.8-5.5-16.7,10.5-19c34.8-5.1,55,7.5,70.2,39.3C518,694.5,542,728.9,562.5,765    c5.8,10.2,12.8,13.5,24.2,13.2c38-0.9,76-1.2,113.9-1c25.6,0.1,26.3,2,13.5,25.1C712.7,804.8,711.3,807.3,708.1,812.8z">
                            </path>
                        </g>
                        <g>
                            <path
                                d="M334.4,837.3c-18.5,4.8-30.5-5.8-40.6-24.6c-17.3-32.1-36.9-63.1-56-94.2c-7.1-11.5-8-21.5-1-33.8    c35.2-61.6,69.9-123.5,104.4-185.5c7.8-14,11.6-13.2,21.7-0.5c21.9,27.5,21.2,51.3,1.4,80.5c-23.3,34.3-40.9,72.3-61.8,108.2    c-5.9,10.2-5.2,17.9,0.7,27.5c19.9,32.3,39.2,65,58.3,97.9c12.8,22.2,11.6,23.8-14.9,24.3C343.6,837.2,340.7,837.2,334.4,837.3z">
                            </path>
                        </g>
                        <g>
                            <path
                                d="M125.1,526.6c-13.5-13.6-10.4-29.3,0.8-47.5c19.1-31.1,36-63.6,53.2-95.9c6.4-11.9,14.5-17.8,28.7-17.9    c70.9-0.5,141.9-1.7,212.8-3.1c16-0.3,17.2,3.4,11.4,18.5c-12.7,32.8-33.6,44.1-68.8,41.7c-41.3-2.9-83.1,1-124.6,1.1    c-11.7,0-18.1,4.5-23.4,14.5c-17.9,33.5-36.4,66.7-55.3,99.6c-12.7,22.2-14.7,21.9-28.5-0.6C129.8,534.6,128.3,532.1,125.1,526.6z    ">
                            </path>
                        </g>
                        <g>
                            <path
                                d="M288.1,189.4c4.9-18.5,20.1-23.7,41.4-23.2c36.5,0.8,73.1-1,109.6-2.3c13.5-0.5,22.7,3.6,29.9,15.8    c36.2,61,72.9,121.7,109.9,182.3c8.3,13.7,5.7,16.6-10.3,19.2c-34.7,5.5-55.1-6.9-70.7-38.5c-18.3-37.1-42.7-71.2-63.7-107.1    c-5.9-10.1-12.9-13.4-24.3-13c-38,1.4-75.9,2.1-113.9,2.4c-25.6,0.2-26.4-1.7-13.8-24.9C283.6,197.5,285,195,288.1,189.4z">
                            </path>
                        </g>
                        <path
                            d="M406.4,273c-41.2,0.2-82.4,1.8-123.6,1.9c-9.2-15.7-26.4-26.3-45.9-26.3c-29.4,0-53.3,23.9-53.3,53.3   s23.9,53.3,53.3,53.3c18.4,0,34.6-9.3,44.2-23.5c28-1.1,56.1-2.5,83.9-0.4c29.3,2.2,42.8-12.5,54.7-34.2   C430.2,277.6,428.2,272.9,406.4,273z M236.9,329.8c-2.6,0-5.2-0.4-7.6-1c-11.7-3.3-20.3-14.1-20.3-26.9c0-15.4,12.5-27.9,27.9-27.9   c4.6,0,9,1.1,12.9,3.1c8.9,4.7,15,14,15,24.8C264.8,317.3,252.3,329.8,236.9,329.8z">
                        </path>
                        <path
                            d="M284.3,467.2c-11.4-18.9-16.6-19.6-27.4-0.7c-22.2,38.5-42.9,77.8-65.4,116.1c-0.4,0.7-0.8,1.4-1.2,2   c-28.6,0.8-51.7,24.4-51.7,53.2c0,29.4,23.9,53.3,53.3,53.3s53.3-23.9,53.3-53.3c0-8.6-2.1-16.8-5.7-24c15-27.8,29.1-56.2,47-82.1   C303,507.5,297,488.4,284.3,467.2z M218.3,646.6c-3.7,11.1-14.2,19.2-26.5,19.2c-15.4,0-27.9-12.5-27.9-27.9c0-11.5,7-21.5,17-25.7   c3.3-1.4,7-2.2,10.9-2.2c15.4,0,27.9,12.5,27.9,27.9C219.7,640.9,219.2,643.8,218.3,646.6z">
                        </path>
                        <path
                            d="M653.5,308.4c-20.7-37.2-42.8-73.6-63.3-110.9c6.3-8.7,9.9-19.4,9.9-30.9c0-29.4-23.9-53.3-53.3-53.3   s-53.3,23.9-53.3,53.3c0,25.9,18.6,47.6,43.2,52.3c16,26.8,32.8,53.1,45.6,81.3c12.2,26.8,31.6,31.5,56.4,31.4   C660.9,331.5,664.1,327.4,653.5,308.4z M574,173c-2.9,12.3-14,21.5-27.2,21.5c-11.9,0-22.2-7.6-26.1-18.1c-1.1-3-1.8-6.3-1.8-9.8   c0-15.4,12.5-27.9,27.9-27.9c15.4,0,27.9,12.5,27.9,27.9C574.8,168.8,574.5,170.9,574,173z">
                        </path>
                        <path
                            d="M812.9,317.4c-29.4,0-53.3,23.9-53.3,53.3c0,6.1,1,11.9,2.9,17.3v0c-15.6,28-30.2,56.6-48.5,82.6   c-17,24-11.3,43.2,1.2,64.5c11.2,19.1,16.4,19.8,27.4,1.1c22.1-37.3,42.8-75.4,65.1-112.5c1.7,0.2,3.4,0.2,5.1,0.2   c29.4,0,53.3-23.9,53.3-53.3S842.3,317.4,812.9,317.4z M820,397.6c-2.3,0.6-4.6,0.9-7.1,0.9c-15.4,0-27.9-12.5-27.9-27.9   c0-5.8,1.8-11.2,4.9-15.7c5-7.4,13.5-12.2,23-12.2c15.4,0,27.9,12.5,27.9,27.9C840.8,383.6,832,394.5,820,397.6z">
                        </path>
                        <path
                            d="M769.4,649.7c-17.1,0-32.4,8.2-42.2,20.8c-31.5,0.7-63,2.4-94.2-0.4c-29.3-2.6-43,12-55.1,33.5   c-10.8,19.3-8.9,24.1,12.9,24.2c43.8,0.3,87.6-1,131.4-0.4c8.9,17,26.7,28.7,47.2,28.7c29.4,0,53.3-23.9,53.3-53.3   C822.7,673.6,798.8,649.7,769.4,649.7z M769.4,730.8c-6.9,0-13.2-2.5-18.1-6.7c-6-5.1-9.8-12.7-9.8-21.2   c0-15.4,12.5-27.9,27.9-27.9h0.1c15.4,0,27.9,12.5,27.9,27.9C797.3,718.3,784.8,730.8,769.4,730.8z">
                        </path>
                        <path
                            d="M466.3,780.9c-16.2-26.4-33.3-52.5-46.4-80.4c-12.5-26.6-32-31.1-56.7-30.7c-22.1,0.3-25.3,4.5-14.5,23.3   c21.1,36.9,43.6,73,64.5,109.9c-6,8.6-9.5,19.1-9.5,30.3c0,29.4,23.9,53.3,53.3,53.3s53.3-23.9,53.3-53.3   C510.3,807.2,491.2,785.4,466.3,780.9z M457,861.3c-15.4,0-27.9-12.5-27.9-27.9c0-2,0.2-4,0.6-5.9c2.7-12.6,13.9-22.1,27.3-22.1   c11.9,0,22.1,7.5,26.1,18v0c1.1,3.1,1.8,6.4,1.8,9.9C484.9,848.8,472.4,861.3,457,861.3z">
                        </path>
                    </g>
                </g>
                <g id="SvgjsG2711" featurekey="nameFeature-0"
                    transform="matrix(1.6327064261507271,0,0,1.6327064261507271,116.21212470373314,11.787360572461711)"
                    fill="url(#SvgjsLinearGradient2717)">
                    <path
                        d="M2.32 40 l0 -32.52 l28.48 0 l0 11.56 l-14.32 0 c-0.12 -0.32 -0.28 -0.6 -0.52 -0.8 c-0.4 -0.44 -0.88 -0.64 -1.44 -0.64 s-1.04 0.2 -1.44 0.64 c-0.4 0.36 -0.6 0.84 -0.6 1.44 c0 0.56 0.2 1.04 0.6 1.4 c0.4 0.4 0.88 0.6 1.44 0.6 s1.04 -0.2 1.44 -0.6 c0.24 -0.2 0.4 -0.48 0.52 -0.8 l10.24 0 l0 7.52 l-8.12 0 l0 12.2 l-16.28 0 z M48.28 7.479999999999997 l3.24 0 c4.04 0 7.68 1.6 10.36 4.28 s4.28 6.32 4.28 10.36 l0 3.24 c0 4 -1.6 7.68 -4.28 10.36 c-2.68 2.6 -6.32 4.28 -10.36 4.28 l-3.24 0 c-4 0 -7.68 -1.68 -10.36 -4.28 c-2.6 -2.68 -4.28 -6.36 -4.28 -10.36 l0 -3.24 c0 -4.04 1.68 -7.68 4.28 -10.36 c2.68 -2.68 6.36 -4.28 10.36 -4.28 z M53.96 21.68 c-0.56 0 -1.04 0.2 -1.4 0.6 c-0.4 0.4 -0.6 0.88 -0.6 1.44 c0 0.6 0.2 1.08 0.6 1.44 c0.4 0.4 0.88 0.6 1.4 0.6 c0.56 0 1.04 -0.2 1.44 -0.6 c0.44 -0.4 0.64 -0.88 0.64 -1.44 c0 -0.52 -0.2 -1 -0.64 -1.44 c-0.36 -0.4 -0.84 -0.6 -1.44 -0.6 z M70.19999999999999 7.479999999999997 l20.32 0 c2.04 0 3.8 0.6 5.24 1.84 c1.28 1.16 2.08 2.8 2.08 4.6 l0 1.48 c0 1.8 -0.8 3.48 -2.08 4.64 c-1.32 1.16 -3.16 1.92 -5.12 1.92 l8.12 13.96 l-0.08 4.08 l-15.6 0 l0 -8.24 c0.32 -0.08 0.6 -0.24 0.84 -0.48 c0.4 -0.4 0.6 -0.88 0.6 -1.44 s-0.2 -1.04 -0.6 -1.44 s-0.88 -0.6 -1.44 -0.6 s-1.04 0.2 -1.44 0.6 s-0.6 0.88 -0.6 1.44 s0.2 1.04 0.6 1.44 c0.24 0.24 0.52 0.4 0.84 0.48 l0 8.24 l-11.68 0 l0 -24.6 l16.36 0 c0.12 0.32 0.28 0.6 0.52 0.8 c0.4 0.4 0.88 0.6 1.44 0.6 s1.04 -0.2 1.44 -0.6 c0.36 -0.36 0.56 -0.84 0.56 -1.4 c0 -0.6 -0.2 -1.08 -0.56 -1.48 c-0.44 -0.4 -0.92 -0.6 -1.44 -0.6 c-0.56 0 -1.04 0.2 -1.44 0.6 c-0.24 0.24 -0.4 0.52 -0.52 0.84 l-16.36 0 l0 -6.68 z M119.35999999999999 40 l-16.28 0 l0 -32.52 l16.28 0 l0 32.52 z M122.92 35.92 l12.2 -28.44 l8.12 0 l12.2 28.44 l0 4.08 l-15.64 0 l0 -10.24 c0.32 -0.12 0.6 -0.28 0.84 -0.52 c0.4 -0.4 0.6 -0.88 0.6 -1.44 s-0.2 -1.04 -0.6 -1.44 s-0.88 -0.6 -1.44 -0.6 c-0.6 0 -1.08 0.2 -1.44 0.6 c-0.4 0.4 -0.6 0.88 -0.6 1.44 s0.2 1.04 0.6 1.44 c0.2 0.2 0.48 0.4 0.84 0.52 l0 10.24 l-15.68 0 l0 -4.08 z">
                    </path>
                </g>
            </svg>