<svg width="1760" height="375" viewBox="0 0 1760 375" fill="none" xmlns="http://www.w3.org/2000/svg">
<path d="M0.540527 374.625V0.919922H327.796V133.762H163.249C161.87 130.085 160.032 126.867 157.274 124.569C152.678 119.513 147.162 117.214 140.727 117.214C134.293 117.214 128.777 119.513 124.181 124.569C119.584 128.706 117.286 134.222 117.286 141.117C117.286 147.552 119.584 153.068 124.181 157.205C128.777 161.801 134.293 164.1 140.727 164.1C147.162 164.1 152.678 161.801 157.274 157.205C160.032 154.907 161.87 151.689 163.249 148.012H280.914V234.428H187.61V374.625H0.540527ZM528.654 0.919922H565.884C612.307 0.919922 654.133 19.3064 684.928 50.1037C715.723 80.901 734.108 122.73 734.108 169.156V206.389C734.108 252.355 715.723 294.644 684.928 325.441C654.133 355.319 612.307 374.625 565.884 374.625H528.654C482.691 374.625 440.405 355.319 409.61 325.441C379.734 294.644 360.43 252.355 360.43 206.389V169.156C360.43 122.73 379.734 80.901 409.61 50.1037C440.405 19.3064 482.691 0.919922 528.654 0.919922ZM593.922 164.1C587.487 164.1 581.971 166.398 577.834 170.995C573.238 175.591 570.94 181.107 570.94 187.543C570.94 194.437 573.238 199.953 577.834 204.09C582.431 208.687 587.946 210.985 593.922 210.985C600.356 210.985 605.872 208.687 610.468 204.09C615.524 199.494 617.822 193.978 617.822 187.543C617.822 181.567 615.524 176.051 610.468 170.995C606.331 166.398 600.816 164.1 593.922 164.1ZM780.531 0.919922H1014.02C1037.46 0.919922 1057.69 7.81484 1074.23 22.0644C1088.94 35.3945 1098.13 54.2407 1098.13 74.9254V91.9329C1098.13 112.618 1088.94 131.923 1074.23 145.254C1059.07 158.584 1037.92 167.317 1015.4 167.317L1108.71 327.739L1107.79 374.625H928.531V279.935C932.208 279.015 935.426 277.177 938.184 274.419C942.78 269.822 945.078 264.306 945.078 257.871C945.078 251.435 942.78 245.92 938.184 241.323C933.587 236.726 928.072 234.428 921.637 234.428C915.202 234.428 909.687 236.726 905.09 241.323C900.494 245.92 898.196 251.435 898.196 257.871C898.196 264.306 900.494 269.822 905.09 274.419C907.848 277.177 911.065 279.015 914.742 279.935V374.625H780.531V91.9329H968.519C969.898 95.6102 971.737 98.8279 974.494 101.126C979.091 105.723 984.606 108.021 991.041 108.021C997.476 108.021 1002.99 105.723 1007.59 101.126C1011.72 96.9892 1014.02 91.4733 1014.02 85.038C1014.02 78.1431 1011.72 72.6271 1007.59 68.0305C1002.53 63.4339 997.016 61.1356 991.041 61.1356C984.606 61.1356 979.091 63.4339 974.494 68.0305C971.737 70.7885 969.898 74.0061 968.519 77.6834H780.531V0.919922ZM1345.41 374.625H1158.35V0.919922H1345.41V374.625ZM1386.32 327.739L1526.51 0.919922H1619.81L1760 327.739V374.625H1580.29V256.951C1583.96 255.572 1587.18 253.734 1589.94 250.976C1594.53 246.379 1596.83 240.863 1596.83 234.428C1596.83 227.993 1594.53 222.477 1589.94 217.88C1585.34 213.284 1579.83 210.985 1573.39 210.985C1566.5 210.985 1560.98 213.284 1556.84 217.88C1552.25 222.477 1549.95 227.993 1549.95 234.428C1549.95 240.863 1552.25 246.379 1556.84 250.976C1559.14 253.274 1562.36 255.572 1566.5 256.951V374.625H1386.32V327.739Z" fill="url(#paint0_linear_16_46)"/>
<defs>
<linearGradient id="paint0_linear_16_46" x1="0.540527" y1="0.919922" x2="1760" y2="0.919922" gradientUnits="userSpaceOnUse">
<stop stop-color="#00FF8F"/>
<stop offset="1" stop-color="#00A1FF"/>
</linearGradient>
</defs>
</svg>
